<?xml version="1.0" encoding="UTF-8" standalone="no"?>
<!-- Created with Inkscape (http://www.inkscape.org/) -->

<svg
   xmlns:dc="http://purl.org/dc/elements/1.1/"
   xmlns:cc="http://creativecommons.org/ns#"
   xmlns:rdf="http://www.w3.org/1999/02/22-rdf-syntax-ns#"
   xmlns:svg="http://www.w3.org/2000/svg"
   xmlns="http://www.w3.org/2000/svg"
   xmlns:sodipodi="http://sodipodi.sourceforge.net/DTD/sodipodi-0.dtd"
   xmlns:inkscape="http://www.inkscape.org/namespaces/inkscape"
   width="210"
   height="55"
   viewBox="0 0 55.562505 14.552083"
   version="1.1"
   id="svg4547"
   inkscape:version="0.92.1 r15371"
   sodipodi:docname="myletters.svg">
  <defs
     id="defs4541" />
  <sodipodi:namedview
     id="base"
     pagecolor="#ffffff"
     bordercolor="#666666"
     borderopacity="1.0"
     inkscape:pageopacity="0.0"
     inkscape:pageshadow="2"
     inkscape:zoom="3.959798"
     inkscape:cx="167.62118"
     inkscape:cy="62.543217"
     inkscape:document-units="mm"
     inkscape:current-layer="layer1"
     showgrid="false"
     units="px"
     inkscape:window-width="2560"
     inkscape:window-height="1506"
     inkscape:window-x="-11"
     inkscape:window-y="-11"
     inkscape:window-maximized="1" />
  <metadata
     id="metadata4544">
    <rdf:RDF>
      <cc:Work
         rdf:about="">
        <dc:format>image/svg+xml</dc:format>
        <dc:type
           rdf:resource="http://purl.org/dc/dcmitype/StillImage" />
        <dc:title></dc:title>
      </cc:Work>
    </rdf:RDF>
  </metadata>
  <g
     inkscape:label="Layer 1"
     inkscape:groupmode="layer"
     id="layer1"
     transform="translate(-4.6692881,-274.17634)">
    <path
       inkscape:connector-curvature="0"
       id="path4503"
       style="font-style:normal;font-variant:normal;font-weight:normal;font-stretch:normal;font-size:medium;line-height:1.25;font-family:Rogers;-inkscape-font-specification:Rogers;letter-spacing:0px;word-spacing:0px;fill:#ffffff;fill-opacity:1;stroke:#000000;stroke-width:0.16500001;stroke-miterlimit:4;stroke-dasharray:none;stroke-opacity:1"
       d="m 21.00478,281.33451 q 0,-0.39797 -0.269056,-0.74721 -0.220136,-0.29238 -0.63595,-0.54415 -0.228287,-0.13808 -0.546262,-0.23554 -0.317975,-0.10558 -0.61149,-0.10558 h -0.66041 v 3.07004 h 0.758248 q 0.269056,0 0.619641,-0.0893 0.358744,-0.0893 0.66041,-0.27614 0.301666,-0.19492 0.489192,-0.47919 0.195677,-0.29238 0.195677,-0.59289 z m -2.723168,-2.07919 q 0.741939,0 1.108833,-0.32486 0.317975,-0.28427 0.317975,-0.76345 0,-0.58477 -0.61149,-0.83655 -0.456582,-0.1868 -1.247441,-0.1868 -0.521802,0 -1.116991,0.14619 -0.595182,0.1462 -1.165904,0.42233 -0.09784,-0.15431 -0.171217,-0.33299 -0.0082,-0.0244 -0.03259,-0.065 0.220137,-0.15432 0.481042,-0.25178 0.269055,-0.10558 0.815318,-0.25178 0.236445,-0.065 0.603339,-0.11371 0.366895,-0.0569 0.71748,-0.0569 0.774557,0 1.369738,0.10558 0.831627,0.14619 1.304518,0.46294 0.587031,0.38985 0.587031,1.02335 0,0.47107 -0.489192,0.80406 -0.432123,0.29238 -0.978385,0.34924 0.423964,0.0569 0.799009,0.12995 0.375053,0.065 0.758248,0.22741 0.554421,0.21929 0.872396,0.57665 0.383203,0.43046 0.383203,1.01523 0,0.44669 -0.171217,0.78781 -0.163067,0.333 -0.538112,0.57665 -0.61149,0.39797 -1.174061,0.49543 -0.554421,0.0975 -2.176906,0.0975 h -2.625337 v -0.51979 h 0.888704 v -4.56446 q -0.04892,0 -0.309824,0.0812 -0.260905,0.0731 -0.350586,0.0731 -0.06525,0 -0.08969,-0.0325 -0.07334,-0.11371 -0.07334,-0.26802 0,-0.13807 0.07334,-0.1868 0.709329,-0.11371 1.239289,-0.21117 0.529954,-0.0975 0.880547,-0.21117 0.06525,-0.0163 0.08153,-0.0163 0.04075,0 0.04075,0.0975 z" />
    <path
       inkscape:connector-curvature="0"
       id="path4505"
       style="font-style:normal;font-variant:normal;font-weight:normal;font-stretch:normal;font-size:medium;line-height:1.25;font-family:Rogers;-inkscape-font-specification:Rogers;letter-spacing:0px;word-spacing:0px;fill:#ffffff;fill-opacity:1;stroke:#000000;stroke-width:0.16500001;stroke-miterlimit:4;stroke-dasharray:none;stroke-opacity:1"
       d="m 27.253322,279.45838 q 0,0.30862 -0.203835,0.51167 -0.203828,0.20304 -0.562571,0.20304 -0.293516,0 -0.375045,-0.31675 -0.04075,-0.12995 -0.07334,-0.2599 -0.440273,-0.0487 -0.913156,0.77969 -0.440273,0.7797 -0.440273,1.38071 v 1.14518 h 0.562571 v 0.38173 h -2.503039 v -0.38173 h 0.55442 v -3.35431 q -0.179368,0.0325 -0.228287,0.0406 -0.04075,0.008 -0.09784,0.008 -0.08154,0 -0.122298,-0.0325 -0.03259,-0.0406 -0.05709,-0.13807 -0.02442,-0.10559 -0.02442,-0.20305 0,-0.0731 0.02442,-0.0893 0.546263,-0.1137 0.937616,-0.19492 0.399505,-0.0893 0.790859,-0.20305 0.06525,-0.0163 0.130456,0.0163 0.01633,0.008 0.04892,0.0406 l -0.01633,1.44569 q 0.293516,-0.47107 0.595182,-0.95025 0.489192,-0.57666 1.222981,-0.57666 0.375044,0 0.562571,0.21117 0.187526,0.21117 0.187526,0.53604 z" />
    <path
       inkscape:connector-curvature="0"
       id="path4507"
       style="font-style:normal;font-variant:normal;font-weight:normal;font-stretch:normal;font-size:medium;line-height:1.25;font-family:Rogers;-inkscape-font-specification:Rogers;letter-spacing:0px;word-spacing:0px;fill:#ffffff;fill-opacity:1;stroke:#000000;stroke-width:0.16500001;stroke-miterlimit:4;stroke-dasharray:none;stroke-opacity:1"
       d="m 32.219133,281.93552 q 0,0.6335 -0.693028,1.07208 -0.684869,0.43858 -1.663254,0.43858 -0.652251,0 -1.174062,-0.12995 -0.521802,-0.12183 -0.880546,-0.38173 -0.709329,-0.51167 -0.709329,-1.5675 0,-0.35736 0.122299,-0.74721 0.220136,-0.71472 0.758248,-1.16141 0.733788,-0.60914 1.948618,-0.60914 0.472884,0 1.019154,0.27614 0.472883,0.24365 0.70117,0.51167 0.179376,0.21117 0.293515,0.47106 0.122299,0.2599 0.146758,0.51981 0.01633,0.0812 0.04075,0.16243 0,0.0975 -0.08153,0.12995 H 28.54202 q -0.03259,0.0325 -0.03259,0.12183 0,0.60101 0.317975,1.08831 0.472883,0.73097 1.492037,0.73097 0.464732,0 0.872387,-0.25178 0.415814,-0.2599 0.415814,-0.5604 0,-0.065 -0.1386,-0.0975 -0.130456,-0.0406 -0.130456,-0.21117 0,-0.13807 0.163067,-0.25178 0.171217,-0.12182 0.309824,-0.12182 0.277207,0 0.366894,0.28426 0.0245,0.0893 0.04075,0.28426 z m -1.532806,-1.4538 q 0,-0.48731 -0.220136,-0.81218 -0.252747,-0.3736 -0.701178,-0.3736 -0.456575,0 -0.807168,0.35736 -0.342434,0.34923 -0.342434,0.82842 z" />
    <path
       inkscape:connector-curvature="0"
       id="path4509"
       style="font-style:normal;font-variant:normal;font-weight:normal;font-stretch:normal;font-size:medium;line-height:1.25;font-family:Rogers;-inkscape-font-specification:Rogers;letter-spacing:0px;word-spacing:0px;fill:#ffffff;fill-opacity:1;stroke:#000000;stroke-width:0.16500001;stroke-miterlimit:4;stroke-dasharray:none;stroke-opacity:1"
       d="m 37.903956,283.29187 h -1.769251 v -0.4467 l -0.04075,0.0325 q -0.203828,0.21117 -0.68487,0.38985 -0.481041,0.17055 -1.239289,0.17055 -0.856087,0 -1.2719,-0.34923 -0.407655,-0.34924 -0.407655,-0.99086 0,-0.48731 0.317975,-0.83655 0.407655,-0.4467 1.31266,-0.66599 0.668568,-0.16243 1.630644,-0.25989 0.415814,-0.0406 0.415814,-0.2599 0,-0.5198 -0.260898,-0.71472 -0.203835,-0.15432 -0.676718,-0.15432 -0.497351,0 -0.880547,0.10559 -0.375052,0.10558 -0.644108,0.28426 v 0.4467 h -0.562571 v -1.42132 h 0.562571 v 0.45482 q 0.228295,-0.16243 0.758248,-0.27613 0.529961,-0.11371 1.21483,-0.11371 0.725638,0 1.231139,0.24365 0.627792,0.30051 0.627792,0.86904 v 3.10253 h 0.366894 z m -1.736633,-2.58274 q -0.652259,0.14619 -1.304518,0.29239 -0.864237,0.32487 -0.864237,1.05583 0,0.32488 0.277206,0.58477 0.277214,0.2599 0.676719,0.2599 0.358743,0 0.709329,-0.18681 0.358743,-0.18679 0.505501,-0.46294 z" />
    <path
       inkscape:connector-curvature="0"
       id="path4511"
       style="font-style:normal;font-variant:normal;font-weight:normal;font-stretch:normal;font-size:medium;line-height:1.25;font-family:Rogers;-inkscape-font-specification:Rogers;letter-spacing:0px;word-spacing:0px;fill:#ffffff;fill-opacity:1;stroke:#000000;stroke-width:0.16500001;stroke-miterlimit:4;stroke-dasharray:none;stroke-opacity:1"
       d="m 40.54457,279.24721 h -0.652252 v 3.66293 h 0.676711 v 0.37361 h -2.144288 v -4.03654 h -0.489192 v -0.48731 h 0.521803 v -0.86091 l 1.22298,-0.88528 q 0.08153,-0.0569 0.130449,-0.0569 0.05709,0 0.05709,0.0893 v 1.7137 h 0.676719 z" />
    <path
       inkscape:connector-curvature="0"
       id="path4513"
       style="font-style:normal;font-variant:normal;font-weight:normal;font-stretch:normal;font-size:medium;line-height:1.25;font-family:Rogers;-inkscape-font-specification:Rogers;letter-spacing:0px;word-spacing:0px;fill:#ffffff;fill-opacity:1;stroke:#000000;stroke-width:0.16500001;stroke-miterlimit:4;stroke-dasharray:none;stroke-opacity:1"
       d="m 47.856469,282.48781 -1.85078,0.90964 -1.581716,-3.14314 q -0.154917,-0.26802 -0.228295,-0.35736 -0.211979,-0.26802 -0.489193,-0.30863 -0.122298,-0.008 -0.366894,0.10558 -0.317975,0.15432 -0.317975,0.35736 v 2.85076 h 0.562571 v 0.38985 h -2.535641 v -0.38985 h 0.58703 v -5.44974 q -0.08969,0 -0.220136,0.0406 -0.130457,0.0325 -0.154916,0.0325 -0.08153,0 -0.130449,-0.0812 -0.04075,-0.0812 -0.04075,-0.15432 0,-0.14619 0.105989,-0.22741 0.04075,-0.0243 0.652259,-0.14619 0.619641,-0.12995 0.970226,-0.2599 0.05709,0.008 0.105997,0.0163 0.05709,0 0.09784,0.0243 v 2.6071 q 0.244597,-0.24365 0.587031,-0.41421 0.277207,-0.13807 0.481034,-0.13807 0.587031,0 1.076223,0.47918 0.334284,0.333 0.766407,1.06396 0.481034,0.82843 0.856086,1.42132 0.203828,0.33299 0.399505,0.60101 l 0.448424,-0.22741 z" />
    <path
       inkscape:connector-curvature="0"
       id="path4515"
       style="font-style:normal;font-variant:normal;font-weight:normal;font-stretch:normal;font-size:medium;line-height:1.25;font-family:Rogers;-inkscape-font-specification:Rogers;letter-spacing:0px;word-spacing:0px;fill:#ffffff;fill-opacity:1;stroke:#000000;stroke-width:0.16500001;stroke-miterlimit:4;stroke-dasharray:none;stroke-opacity:1"
       d="m 52.968398,281.93552 q 0,0.6335 -0.69302,1.07208 -0.684869,0.43858 -1.663254,0.43858 -0.652259,0 -1.174061,-0.12995 -0.521803,-0.12183 -0.880546,-0.38173 -0.709329,-0.51167 -0.709329,-1.5675 0,-0.35736 0.122298,-0.74721 0.220136,-0.71472 0.758248,-1.16141 0.733788,-0.60914 1.948619,-0.60914 0.472883,0 1.019145,0.27614 0.472891,0.24365 0.701178,0.51167 0.179368,0.21117 0.293516,0.47106 0.122298,0.2599 0.146758,0.51981 0.01633,0.0812 0.04075,0.16243 0,0.0975 -0.08153,0.12995 h -3.505883 q -0.03259,0.0325 -0.03259,0.12183 0,0.60101 0.317975,1.08831 0.472891,0.73097 1.492036,0.73097 0.464733,0 0.872396,-0.25178 0.415813,-0.2599 0.415813,-0.5604 0,-0.065 -0.138607,-0.0975 -0.130449,-0.0406 -0.130449,-0.21117 0,-0.13807 0.163067,-0.25178 0.171217,-0.12182 0.309817,-0.12182 0.277214,0 0.366894,0.28426 0.0245,0.0893 0.04075,0.28426 z m -1.532797,-1.4538 q 0,-0.48731 -0.220137,-0.81218 -0.252754,-0.3736 -0.701178,-0.3736 -0.456582,0 -0.807167,0.35736 -0.342435,0.34923 -0.342435,0.82842 z" />
    <path
       inkscape:connector-curvature="0"
       id="path4499"
       style="font-style:normal;font-variant:normal;font-weight:bold;font-stretch:normal;font-size:14.11111069px;line-height:1.25;font-family:'Segoe UI';-inkscape-font-specification:'Segoe UI';letter-spacing:0px;word-spacing:0px;fill:#ffffff;fill-opacity:1;stroke:#000000;stroke-width:0.16500001;stroke-miterlimit:4;stroke-dasharray:none;stroke-opacity:1"
       d="m 59.967723,282.37682 h -2.043614 v 2.03574 h -1.072225 v -2.03574 h -2.05423 v -1.07339 h 2.05423 v -2.04632 h 1.072225 v 2.04632 h 2.043614 z" />
    <rect
       style="opacity:1;fill:#ff0000;fill-opacity:1;stroke:#000000;stroke-width:0;stroke-miterlimit:4;stroke-dasharray:none;stroke-opacity:1"
       id="rect6363"
       width="9.260416"
       height="9.2604151"
       x="5.1643114"
       y="275.2973" />
    <rect
       y="275.2973"
       x="5.1643114"
       height="9.2604151"
       width="9.260416"
       id="rect6365"
       style="opacity:1;fill:#f5f5f5;fill-opacity:1;stroke:#000000;stroke-width:0.2;stroke-miterlimit:4;stroke-dasharray:none;stroke-opacity:1" />
    <path
       style="fill:#ffffff;fill-opacity:1;stroke-width:0.26458332"
       inkscape:connector-curvature="0"
       id="path6367"
       d="m 8.6451049,278.47256 0.0034,-10e-4 v 0 z" />
    <path
       style="fill:#000000;fill-opacity:1;stroke-width:0.26458332"
       inkscape:connector-curvature="0"
       id="path6369"
       d="M 12.823569,280.14436 Z" />
    <g
       style="fill:#000000;fill-opacity:1;stroke:none;stroke-width:14.02679634;stroke-opacity:1"
       transform="matrix(0.01886271,0,0,0.01886271,5.865496,276.61892)"
       id="g6375">
      <path
         style="fill:#000000;fill-opacity:1;stroke:none;stroke-width:14.02679634;stroke-opacity:1"
         d="m 368.88,186.9 a 20.57,20.57 0 0 0 8.55,1.52 13.51,13.51 0 0 0 6.93,-2.41 19.25,19.25 0 0 0 5.22,-5.78 38.81,38.81 0 0 0 3.65,-8.23 81.08,81.08 0 0 0 2.51,-10 c 0.74,-3.82 1.28,-7.67 1.75,-11.53 1,-8 1.54,-16 2.16,-24 0.46,-5.82 0.92,-11.65 1.69,-17.44 0.36,-2.66 0.79,-5.31 1.37,-7.92 a 38.66,38.66 0 0 1 2,-6.42 16.41,16.41 0 0 1 1.78,-3.13 9.54,9.54 0 0 1 1.17,-1.21 1.31,1.31 0 0 0 0.2,-1.6 1.35,1.35 0 0 0 -0.78,-0.61 1.58,1.58 0 0 0 -0.38,0 1.07,1.07 0 0 0 -0.64,0.18 12.4,12.4 0 0 0 -3.77,5 37.45,37.45 0 0 0 -2.45,7.6 c -0.73,3.22 -1.2,6.5 -1.62,9.76 -0.45,3.65 -0.79,7.31 -1.1,11 -0.67,8 -1.16,15.93 -1.91,23.89 -0.29,3.11 -0.63,6.21 -1,9.31 -0.48,3.61 -1.07,7.21 -1.88,10.76 a 59.41,59.41 0 0 1 -2.8,9.25 l -0.18,0.42 a 27.55,27.55 0 0 1 -3.21,5.7 16.4,16.4 0 0 1 -2.71,2.75 13,13 0 0 1 -2.43,1.45 12.32,12.32 0 0 1 -2.91,0.8 15.27,15.27 0 0 1 -3.7,0 23.68,23.68 0 0 1 -4.8,-1.3 1.16,1.16 0 0 0 -1.31,1.71 1.19,1.19 0 0 0 0.6,0.48 z"
         id="path6371"
         inkscape:connector-curvature="0" />
      <path
         style="fill:#000000;fill-opacity:1;stroke:none;stroke-width:14.02679634;stroke-opacity:1"
         d="m 421.05,92.26 a 1.5,1.5 0 0 0 -2,-0.53 14.06,14.06 0 0 0 -4.45,4.5 32.65,32.65 0 0 0 -3.26,6.76 72.79,72.79 0 0 0 -2.45,8.32 c -0.77,3.23 -1.4,6.49 -2,9.76 -1.27,7.3 -2.2,14.66 -3.2,22 -1,7.34 -2.05,14.88 -3.5,22.25 -0.66,3.39 -1.42,6.75 -2.34,10.08 A 70.14,70.14 0 0 1 395,184 v -0.12 0.12 l -0.06,0.14 0.05,-0.12 a 34.92,34.92 0 0 1 -4.23,7.51 19.68,19.68 0 0 1 -3,3.09 14,14 0 0 1 -2.93,1.75 13.74,13.74 0 0 1 -3.21,0.87 15.93,15.93 0 0 1 -3.78,0 22.53,22.53 0 0 1 -5.38,-1.55 l -0.5,-0.22 a 0.83,0.83 0 0 0 -1.13,0.3 0.84,0.84 0 0 0 0.3,1.13 24.3,24.3 0 0 0 8.09,2.22 15.25,15.25 0 0 0 3.57,-0.17 14.22,14.22 0 0 0 3.24,-1 16.5,16.5 0 0 0 5.44,-4 29,29 0 0 0 4.39,-6.37 58.53,58.53 0 0 0 3.49,-8.34 c 1.08,-3.16 2,-6.38 2.74,-9.61 1.73,-7.2 3,-14.51 4.1,-21.82 1.1,-7.31 2.22,-14.83 3.45,-22.23 0.57,-3.39 1.18,-6.78 1.9,-10.14 0.63,-3 1.35,-6 2.24,-8.88 0.5,-1.6 1,-3.19 1.68,-4.74 a 26.13,26.13 0 0 1 3.07,-5.52 13.5,13.5 0 0 1 2.24,-2.23 h -0.06 a 1.49,1.49 0 0 0 0.56,-0.78 1.53,1.53 0 0 0 -0.22,-1.03 z"
         id="path6373"
         inkscape:connector-curvature="0" />
    </g>
    <path
       inkscape:connector-curvature="0"
       d="m 10.434903,275.81531 0.01395,0.11756 c 0.01444,0.12172 -0.02335,0.17118 -0.0618,0.20329 -0.03789,0.0316 -0.07584,0.0384 -0.07696,0.0386 -0.7917557,0.0532 -1.3123714,0.0177 -1.7841821,0.0225 -0.4732147,0.005 -0.8987924,0.0521 -1.4810399,0.27234 -0.345858,0.13081 -0.536117,0.32277 -0.636616,0.4842 -0.08236,0.13229 -0.100377,0.22903 -0.106072,0.26659 -0.418315,0.34318 -0.552984,0.89368 -0.577268,1.5614 -0.02591,0.70961 0.492044,1.54955 0.755404,1.97861 0.271995,0.44321 0.355498,0.54648 0.485328,0.7035 v 10e-5 c 0.01133,0.0137 0.02771,0.0326 0.04051,0.0477 0.02607,-0.0152 0.0601,-0.032 0.105317,-0.0526 0.0064,-0.003 0.01289,-0.004 0.01941,-0.003 0.0011,-10e-4 0.0022,-0.002 0.0032,-0.003 0.0044,-0.001 0.0066,-0.002 0.01065,-0.003 -0.02275,-0.0259 -0.04969,-0.0559 -0.06754,-0.0775 v -1.8e-4 C 6.947688,281.21577 6.874,281.12604 6.603642,280.6855 c -0.262636,-0.42789 -0.757215,-1.26511 -0.734115,-1.8977 0.02411,-0.66291 0.155523,-1.16833 0.542602,-1.47181 l 0.02487,-0.0195 0.0026,-0.0316 c 0,0 0.0067,-0.0977 0.09147,-0.2339 0.08482,-0.13624 0.246097,-0.30474 0.564927,-0.42532 0.5670675,-0.21449 0.9666892,-0.2583 1.4313979,-0.26301 0.4647087,-0.005 0.9940904,0.0314 1.7984061,-0.0231 l 0.0036,-3.7e-4 0.0036,-5.4e-4 c 0,0 0.07706,-0.0126 0.14686,-0.0708 0.04793,-0.04 0.09016,-0.10702 0.107014,-0.19623 0.0054,0.006 0.01897,0.0161 0.01931,0.0172 l 0.01225,0.04 0.04088,0.009 c 0,0 0.02055,-0.003 0.03137,-0.002 0.0077,0.0314 0.01637,0.0643 0.01734,0.10343 l 0.0038,0.15449 0.106825,-0.0935 c 0.057,0.1524 0.121949,0.37852 0.03777,0.606 l -0.01092,0.0296 0.01422,0.0282 c 0,0 0.07054,0.13936 0.146956,0.29833 0.07641,0.15898 0.160086,0.34423 0.179358,0.40818 0.03297,0.10925 0.127628,0.22012 0.220998,0.33912 0.09337,0.11902 0.186036,0.24336 0.209034,0.30644 0.0331,0.0908 0.06338,0.14999 0.07564,0.18577 0.01225,0.0358 0.01371,0.0373 -0.0018,0.067 v 9e-5 c -0.02434,0.0467 -0.05023,0.0992 -0.04804,0.16429 0.0022,0.0651 0.03555,0.13056 0.09806,0.19528 0.06123,0.0634 0.172571,0.15779 0.281099,0.24992 0.108547,0.0921 0.216139,0.18432 0.247091,0.21732 0.05015,0.0534 0.13651,0.12207 0.184635,0.19877 0.02406,0.0384 0.03669,0.0748 0.03561,0.10795 -0.0011,0.0331 -0.01314,0.068 -0.05878,0.11295 -0.05323,0.0524 -0.0884,0.0788 -0.108898,0.0904 -0.0205,0.0116 -0.0224,0.0105 -0.03373,0.0109 -0.01134,3.6e-4 -0.03948,-0.002 -0.07432,0.009 -0.03478,0.0109 -0.06994,0.0328 -0.113702,0.0713 0,0 -9.7e-5,10e-5 -9.7e-5,10e-5 -4.2e-5,4e-5 -4.5e-5,1.5e-4 -9.6e-5,1.8e-4 -0.03697,0.0325 -0.04354,0.0798 -0.04051,0.11521 0.003,0.0355 0.01393,0.0675 0.02704,0.0985 0.02623,0.0618 0.0599,0.1148 0.09024,0.14864 0.0313,0.0351 0.04965,0.0493 0.05322,0.063 0.0036,0.0138 0.0052,0.0489 -0.07178,0.1349 l -0.05068,0.0567 0.05916,0.0478 c 0,0 0.02171,0.0181 0.03599,0.0507 0.01427,0.0326 0.02365,0.0708 -0.01837,0.13726 -0.05482,0.0867 -0.08156,0.13304 -0.09015,0.1851 -0.0043,0.026 -7.29e-4,0.053 0.0052,0.0723 0.006,0.0192 0.01214,0.0315 0.01704,0.0446 0.04357,0.1157 0.09938,0.23491 0.124724,0.34365 0.02534,0.1087 0.02302,0.19838 -0.03834,0.28129 -0.08626,0.11641 -0.27162,0.17398 -0.50172,0.22467 -0.230099,0.0507 -0.49733,0.0964 -0.72884,0.22853 -0.169542,0.0968 -0.260686,0.1642 -0.311053,0.24813 -0.05037,0.0839 -0.04481,0.1679 -0.04239,0.26188 5.46e-4,0.0188 0.0015,0.035 0.0021,0.0527 0.04733,-0.019 0.09507,-0.037 0.142716,-0.0552 -1.1e-5,-3.7e-4 -9.7e-5,-7.3e-4 -9.7e-5,-10e-4 -0.0025,-0.0962 -0.0045,-0.14004 0.02176,-0.18379 0.02625,-0.0437 0.09592,-0.10397 0.25868,-0.19688 0.201669,-0.11512 0.453776,-0.16124 0.688238,-0.21289 0.23446,-0.0517 0.458897,-0.10694 0.586972,-0.27978 0.09196,-0.12418 0.09325,-0.26978 0.06283,-0.40027 -0.03042,-0.13049 -0.08976,-0.25447 -0.130187,-0.36183 -0.0072,-0.0192 -0.01271,-0.0316 -0.01422,-0.0365 -0.0015,-0.005 -0.0013,-0.002 -7.29e-4,-0.006 0.0015,-0.008 0.0175,-0.0487 0.06971,-0.13131 0.06508,-0.10294 0.05777,-0.20613 0.02864,-0.27262 -0.01389,-0.0317 -0.02169,-0.0323 -0.03702,-0.0501 0.05946,-0.0818 0.08801,-0.15626 0.07188,-0.21827 -0.01945,-0.0748 -0.07661,-0.1132 -0.08544,-0.12312 l -9.6e-5,-9e-5 -9.7e-5,-1e-4 c -0.01032,-0.0115 -0.04582,-0.064 -0.06472,-0.10852 -0.0094,-0.0222 -0.01497,-0.0433 -0.01591,-0.0541 0.02679,-0.022 0.0465,-0.0343 0.05323,-0.0364 0.0078,-0.002 0.01145,-0.001 0.03589,-0.002 0.02445,-7.3e-4 0.06228,-0.008 0.100514,-0.0298 0.03824,-0.0217 0.08072,-0.0558 0.138948,-0.11314 v -9e-5 c 0.0658,-0.0648 0.09948,-0.13946 0.101832,-0.2113 0.0024,-0.0718 -0.02383,-0.13587 -0.05756,-0.18963 -0.06746,-0.1075 -0.172333,-0.18942 -0.20178,-0.2208 v 9e-5 c -0.04888,-0.0521 -0.150579,-0.13672 -0.258962,-0.22872 -0.108382,-0.092 -0.221497,-0.18919 -0.270641,-0.24012 h -9.7e-5 c -0.04793,-0.0496 -0.05672,-0.0776 -0.05746,-0.0996 -7.29e-4,-0.022 0.0097,-0.0503 0.03174,-0.0926 0.03098,-0.0594 0.02901,-0.12674 0.01046,-0.18087 -0.01855,-0.0541 -0.04648,-0.10585 -0.07658,-0.1884 -0.04022,-0.11031 -0.137951,-0.22737 -0.231172,-0.3462 -0.0932,-0.11879 -0.181356,-0.24205 -0.196317,-0.29155 v -1e-4 c -0.02851,-0.0946 -0.110308,-0.26848 -0.187461,-0.42899 -0.07102,-0.14775 -0.126449,-0.25714 -0.136499,-0.27705 0.129943,-0.41053 -0.11455,-0.85545 -0.11455,-0.85545 l -0.05831,0.0195 c -0.0157,-0.0586 -0.03175,-0.10164 -0.03175,-0.10164 l -0.08035,0.0152 c -0.02607,-0.0373 -0.05855,-0.0653 -0.08883,-0.0835 -0.04224,-0.0253 -0.08092,-0.0396 -0.08092,-0.0396 z m 0.252367,0.16023 c 0.0027,1.9e-4 0.0042,9.1e-4 0.0042,9.1e-4 l 0.0069,0.006 -0.03504,0.007 c 0.0032,-0.004 0.0075,-0.0103 0.01225,-0.0122 0.005,-0.002 0.0089,-0.002 0.01168,-0.002 z"
       style="color:#000000;font-style:normal;font-variant:normal;font-weight:normal;font-stretch:normal;font-size:medium;line-height:normal;font-family:sans-serif;font-variant-ligatures:normal;font-variant-position:normal;font-variant-caps:normal;font-variant-numeric:normal;font-variant-alternates:normal;font-feature-settings:normal;text-indent:0;text-align:start;text-decoration:none;text-decoration-line:none;text-decoration-style:solid;text-decoration-color:#000000;letter-spacing:normal;word-spacing:normal;text-transform:none;writing-mode:lr-tb;direction:ltr;text-orientation:mixed;dominant-baseline:auto;baseline-shift:baseline;text-anchor:start;white-space:normal;shape-padding:0;clip-rule:nonzero;display:inline;overflow:visible;visibility:visible;opacity:1;isolation:auto;mix-blend-mode:normal;color-interpolation:sRGB;color-interpolation-filters:linearRGB;solid-color:#000000;solid-opacity:1;vector-effect:none;fill:none;fill-opacity:1;fill-rule:nonzero;stroke:#000000;stroke-width:0.19;stroke-linecap:butt;stroke-linejoin:miter;stroke-miterlimit:4;stroke-dasharray:none;stroke-dashoffset:0;stroke-opacity:1;color-rendering:auto;image-rendering:auto;shape-rendering:auto;text-rendering:auto;enable-background:accumulate"
       id="path6377" />
    <g
       style="fill:#000000;fill-opacity:1;stroke:none;stroke-width:15.64583111;stroke-opacity:1"
       transform="matrix(0.01691079,0,0,0.01691079,5.900359,275.17706)"
       id="g6391">
      <path
         style="fill:#000000;fill-opacity:1;stroke:none;stroke-width:15.64583111;stroke-opacity:1"
         d="M 297.6,292 Z"
         id="path6379"
         inkscape:connector-curvature="0" />
      <path
         style="fill:#000000;fill-opacity:1;stroke:none;stroke-width:15.64583111;stroke-opacity:1"
         d="m 116.89,429.12 a 98.13,98.13 0 0 0 11.22,-5.05 132.91,132.91 0 0 0 20.14,-13.43 234.55,234.55 0 0 0 18.06,-16 c 5.68,-5.53 11.22,-11.2 16.71,-16.92 4.2,-4.38 8.42,-8.74 12.61,-13.13 8,-8.37 16,-16.72 24.29,-24.73 a 315.18,315.18 0 0 1 25.21,-22 c 10.38,-8 21.43,-15.28 33.52,-20.43 a 77.75,77.75 0 0 1 19,-5.41 h -0.17 0.23 0.17 -0.15 a 52.7,52.7 0 0 1 13.28,-0.1 46,46 0 0 1 11.13,3 49,49 0 0 1 10.34,6.08 c 1.15,0.9 2.26,1.83 3.34,2.81 a 1.45,1.45 0 0 0 2,0 1.43,1.43 0 0 0 0,-2 58.55,58.55 0 0 0 -7.35,-5.68 48.42,48.42 0 0 0 -7.68,-4 47.1,47.1 0 0 0 -16.09,-3.5 c -0.81,0 -1.61,0 -2.41,0 -10.88,0 -21.58,3.39 -31.39,7.87 -11.9,5.33 -22.9,12.73 -33.31,20.68 -10.41,7.95 -20.38,16.72 -30,25.7 -7.84,7.29 -15.44,14.82 -23.18,22.22 -5.55,5.31 -11,10.68 -16.65,15.94 -5.88,5.53 -11.88,10.89 -18.15,16 q -1.59,1.28 -3.18,2.52 a 133.21,133.21 0 0 1 -27.73,16.87 82.43,82.43 0 0 1 -19.41,5.39 c -2.77,0.35 -5.56,0.56 -8.34,0.65 -1.54,0.05 -3.07,0.07 -4.61,0.08 -0.77,0 -1.55,0 -2.32,0.07 a 15.46,15.46 0 0 0 -2.18,0.27 7.44,7.44 0 0 0 -0.84,0.25 h -0.26 a 4.1,4.1 0 0 0 -2,0.54 4,4 0 0 0 -1.43,5.44 3.83,3.83 0 0 0 2.38,1.82 h 0.13 l 0.51,0.37 a 9.39,9.39 0 0 0 1.94,0.86 13.12,13.12 0 0 0 2.68,0.66 45.82,45.82 0 0 0 6.91,0.68 58.05,58.05 0 0 0 12.26,-1.19 67.35,67.35 0 0 0 10.77,-3.2 z"
         id="path6381"
         inkscape:connector-curvature="0" />
      <path
         style="fill:#000000;fill-opacity:1;stroke:none;stroke-width:15.64583111;stroke-opacity:1"
         d="m 313.89,538.54 a 48.78,48.78 0 0 0 -2.26,-4.93 61.83,61.83 0 0 0 -5.93,-8.85 124,124 0 0 0 -13.22,-14.09 c -4.73,-4.45 -9.55,-8.8 -14.13,-13.42 A 149.76,149.76 0 0 1 267.16,484.69 94.82,94.82 0 0 1 256,465.85 a 90.8,90.8 0 0 1 -5.62,-21.19 114.69,114.69 0 0 1 0.26,-28.38 151.36,151.36 0 0 1 10.2,-36.89 137.35,137.35 0 0 1 16.89,-29.27 104.15,104.15 0 0 1 17.58,-17.78 80.92,80.92 0 0 1 16.59,-9.78 69.28,69.28 0 0 1 16.28,-4.5 q 2,-0.26 4,-0.39 a 3.0360542,3.0360542 0 0 0 0.16,-6.07 h -0.16 a 76.39,76.39 0 0 0 -13.94,2.14 75.13,75.13 0 0 0 -13.07,4.76 89.82,89.82 0 0 0 -23,15.93 126.08,126.08 0 0 0 -18.9,22.57 156.19,156.19 0 0 0 -14.06,26.76 150.49,150.49 0 0 0 -8.5,27.77 127.26,127.26 0 0 0 -2.71,27.64 104.64,104.64 0 0 0 1.87,17.11 85.08,85.08 0 0 0 4.76,16.23 92.79,92.79 0 0 0 7.93,15.42 119.94,119.94 0 0 0 10.89,14.21 234.6,234.6 0 0 0 17.79,17.61 154,154 0 0 1 16.76,17.31 c 1.08,1.44 2.11,2.92 3.1,4.42 a 50.54,50.54 0 0 1 3.63,5.86 5.8,5.8 0 0 0 10,0 5.61,5.61 0 0 0 0.58,-4.47 c -0.47,-1.43 -0.87,-2.87 -1.42,-4.33 z"
         id="path6383"
         inkscape:connector-curvature="0" />
      <path
         style="fill:#000000;fill-opacity:1;stroke:none;stroke-width:15.64583111;stroke-opacity:1"
         d="m 179.61,416.46 c 9.52,-10.87 18.37,-22.3 27.83,-33.22 4,-4.62 8.25,-9 12.31,-13.61 4.37,-4.93 8.65,-10 13,-14.92 5.55,-6.32 11.18,-12.58 17.09,-18.57 q 4.41,-4.47 9.06,-8.67 c 3.08,-2.79 6.23,-5.5 9.5,-8.05 a 97.21,97.21 0 0 1 20.3,-12.12 62.56,62.56 0 0 1 15.23,-4.3 52.12,52.12 0 0 1 12.91,0 53.92,53.92 0 0 1 12.85,3.46 c 0.52,0.23 1,0.45 1.56,0.69 a 1.63,1.63 0 0 0 2.2,-0.58 1.61,1.61 0 0 0 -0.58,-2.2 63.47,63.47 0 0 0 -9.91,-3.7 53.74,53.74 0 0 0 -9.84,-1.7 c -1.36,-0.12 -2.72,-0.17 -4.08,-0.17 a 59.88,59.88 0 0 0 -15.11,2.06 79.62,79.62 0 0 0 -18.43,7.7 140.19,140.19 0 0 0 -17.63,11.83 c -5.71,4.43 -11.09,9.26 -16.34,14.2 -5.25,4.94 -10.14,9.92 -15.05,15 -4.55,4.72 -9,9.49 -13.6,14.21 -4.26,4.41 -8.63,8.7 -12.81,13.18 -4.47,4.78 -8.78,9.69 -13.09,14.6 -4.73,5.38 -9.47,10.73 -14.29,16 -9.37,10.29 -19.21,20.28 -30.18,28.89 A 107.1,107.1 0 0 1 120,450.1 q -2.94,1.2 -6,2.17 c -1.14,0.38 -2.29,0.72 -3.44,1.06 -1.15,0.34 -2.48,0.78 -3.73,1.14 h -0.13 l -1.15,0.15 a 4.31,4.31 0 0 0 -1.89,1.1 4.36,4.36 0 0 0 -1.26,3.05 4.31,4.31 0 0 0 1.26,3 4.11,4.11 0 0 0 3,1.26 l 1.19,-0.14 a 9.45,9.45 0 0 1 1.19,0 c 0.79,0 1.58,0 2.37,-0.11 a 45.3,45.3 0 0 0 6,-0.95 59,59 0 0 0 9.61,-3.07 85.26,85.26 0 0 0 10.24,-4.93 104.11,104.11 0 0 0 8.94,-5.79 c 12.61,-8.93 23.31,-20.04 33.41,-31.58 z"
         id="path6385"
         inkscape:connector-curvature="0" />
      <path
         style="fill:#000000;fill-opacity:1;stroke:none;stroke-width:15.64583111;stroke-opacity:1"
         d="m 221.23,391.18 c 6.44,-10.61 13.12,-21.1 20.5,-31.08 q 1.44,-2 2.93,-3.88 c 8.37,-10.81 17.6,-21.08 28.44,-29.47 a 87.86,87.86 0 0 1 18.74,-11.15 65.22,65.22 0 0 1 16.16,-4.49 60.14,60.14 0 0 1 13.61,-0.19 1,1 0 0 0 1.05,-1 1.08,1.08 0 0 0 -1.05,-1.06 c -2.1,-0.21 -4.19,-0.32 -6.29,-0.32 a 61.56,61.56 0 0 0 -11.94,1.17 69.24,69.24 0 0 0 -16.94,5.85 c -11.32,5.52 -21.21,13.75 -30,22.68 a 240.18,240.18 0 0 0 -24.71,30.38 c -6.82,9.69 -13.18,19.7 -19.44,29.75 -4.94,7.94 -9.53,16.08 -14.5,24 -2.64,4.2 -5.25,8.42 -8,12.54 -2.75,4.12 -5.71,8.2 -8.75,12.16 a 117.62,117.62 0 0 1 -19.55,20.27 70.26,70.26 0 0 1 -6.61,4.47 c -1.26,0.76 -2.55,1.46 -3.86,2.14 -0.65,0.34 -1.29,0.67 -1.93,1 -0.33,0.18 -0.64,0.36 -0.94,0.56 a 2.64,2.64 0 0 1 -0.37,0.2 l -0.95,0.41 a 4.64,4.64 0 0 0 -1.68,1.67 4.65,4.65 0 0 0 1.68,6.38 l 1.11,0.47 a 4.74,4.74 0 0 0 2.48,0 l 1.08,-0.45 a 29.75,29.75 0 0 0 4.77,-2 47.41,47.41 0 0 0 4.1,-2.47 74.85,74.85 0 0 0 8.07,-6.24 102.81,102.81 0 0 0 13.61,-15 170.42,170.42 0 0 0 11.33,-17.1 c 3.5,-5.94 6.82,-12 10,-18.06 3,-5.76 6,-11.52 9.18,-17.23 2.76,-5.09 5.69,-10.02 8.67,-14.91 z"
         id="path6387"
         inkscape:connector-curvature="0" />
      <path
         style="fill:#000000;fill-opacity:1;stroke:none;stroke-width:15.64583111;stroke-opacity:1"
         d="m 242.13,505.41 c -1.32,-2.55 -2.69,-5.08 -4.07,-7.61 -2.64,-4.86 -5.44,-9.63 -8.1,-14.48 -2.66,-4.85 -5.08,-9.68 -7.24,-14.7 a 73.33,73.33 0 0 1 -5,-17.08 57.78,57.78 0 0 1 -0.39,-8 73.44,73.44 0 0 1 0.67,-7.54 140,140 0 0 1 9.68,-34.2 191.11,191.11 0 0 1 24.52,-41.66 172.71,172.71 0 0 1 29.89,-30.28 123.16,123.16 0 0 1 11.64,-8 1.54,1.54 0 0 0 -0.73,-2.86 1.51,1.51 0 0 0 -0.77,0.21 c -18.32,10.94 -33.68,26.38 -46.47,43.33 a 198.81,198.81 0 0 0 -18,28.76 163.79,163.79 0 0 0 -12,30.26 119.83,119.83 0 0 0 -3.57,18.11 75,75 0 0 0 0.36,19.63 c 1.88,13.45 7.25,26 12.51,38.44 v -0.09 c 0.89,2.12 1.79,4.22 2.69,6.33 1.9,4.58 3.65,9.23 5.29,13.9 0.87,2.5 1.65,5 2.35,7.56 0.7,2.56 1.26,5.14 2.21,7.6 a 6.87,6.87 0 0 0 1.77,3.05 6.94,6.94 0 0 0 4.9,2 c 3.64,0 7.1,-3.15 6.92,-6.92 -0.28,-5.91 -2.58,-11.59 -4.85,-17 -1.41,-2.92 -2.73,-5.86 -4.21,-8.76 z"
         id="path6389"
         inkscape:connector-curvature="0" />
    </g>
  </g>
</svg>
