<?xml version="1.0" encoding="UTF-8" standalone="no"?>
<!-- Created with Inkscape (http://www.inkscape.org/) -->

<svg
   xmlns:dc="http://purl.org/dc/elements/1.1/"
   xmlns:cc="http://creativecommons.org/ns#"
   xmlns:rdf="http://www.w3.org/1999/02/22-rdf-syntax-ns#"
   xmlns:svg="http://www.w3.org/2000/svg"
   xmlns="http://www.w3.org/2000/svg"
   xmlns:sodipodi="http://sodipodi.sourceforge.net/DTD/sodipodi-0.dtd"
   xmlns:inkscape="http://www.inkscape.org/namespaces/inkscape"
   width="170"
   height="55"
   viewBox="0 0 44.979171 14.552083"
   version="1.1"
   id="svg4547"
   inkscape:version="0.92.1 r15371"
   sodipodi:docname="mylettersapp.svg">
  <defs
     id="defs4541" />
  <sodipodi:namedview
     id="base"
     pagecolor="#ffffff"
     bordercolor="#666666"
     borderopacity="1.0"
     inkscape:pageopacity="0.0"
     inkscape:pageshadow="2"
     inkscape:zoom="1.4"
     inkscape:cx="542.54276"
     inkscape:cy="-91.646761"
     inkscape:document-units="mm"
     inkscape:current-layer="layer1"
     showgrid="false"
     units="px"
     inkscape:window-width="2560"
     inkscape:window-height="1506"
     inkscape:window-x="-11"
     inkscape:window-y="-11"
     inkscape:window-maximized="1" />
  <metadata
     id="metadata4544">
    <rdf:RDF>
      <cc:Work
         rdf:about="">
        <dc:format>image/svg+xml</dc:format>
        <dc:type
           rdf:resource="http://purl.org/dc/dcmitype/StillImage" />
        <dc:title></dc:title>
      </cc:Work>
    </rdf:RDF>
  </metadata>
  <g
     inkscape:label="Layer 1"
     inkscape:groupmode="layer"
     id="layer1"
     transform="translate(-4.6692881,-274.17634)">
    <g
       transform="translate(-4.7856038,-8.786139)"
       aria-label="application"
       style="font-style:normal;font-variant:normal;font-weight:normal;font-stretch:normal;font-size:10.58333302px;line-height:1.25;font-family:'Segoe UI';-inkscape-font-specification:'Segoe UI';letter-spacing:0px;word-spacing:0px;fill:#f5f5f5;fill-opacity:1;stroke:#000000;stroke-width:0.1;stroke-miterlimit:4;stroke-dasharray:none;stroke-opacity:1"
       id="text5114">
      <path
         inkscape:connector-curvature="0"
         d="M 16.583952,294.16516 H 15.45086 v -0.55707 H 15.4357 q -0.390329,0.65181 -1.155829,0.65181 -0.564651,0 -0.890558,-0.31833 -0.322116,-0.32211 -0.322116,-0.85645 0,-1.1293 1.337731,-1.30362 l 1.05351,-0.14022 q 0,-0.63665 -0.689708,-0.63665 -0.693498,0 -1.318783,0.41307 v -0.90193 q 0.250114,-0.12885 0.682129,-0.22737 0.435805,-0.0985 0.792028,-0.0985 1.659847,0 1.659847,1.65605 z m -1.125513,-1.57647 v -0.26149 l -0.704867,0.091 q -0.583599,0.0758 -0.583599,0.52676 0,0.20464 0.140216,0.33727 0.144005,0.12885 0.386539,0.12885 0.337275,0 0.549493,-0.23117 0.212218,-0.23495 0.212218,-0.59117 z"
         style="font-weight:bold;font-size:7.76111126px;fill:#f5f5f5;fill-opacity:1;stroke:#000000;stroke-width:0.1;stroke-miterlimit:4;stroke-dasharray:none;stroke-opacity:1"
         id="path5116" />
      <path
         inkscape:connector-curvature="0"
         d="m 18.751606,293.7142 h -0.01516 v 2.23587 h -1.197515 v -5.66546 h 1.197515 v 0.58359 h 0.01516 q 0.443383,-0.67833 1.24678,-0.67833 0.754131,0 1.163408,0.51917 0.413067,0.51539 0.413067,1.40594 0,0.97014 -0.481279,1.55753 -0.477491,0.58739 -1.273308,0.58739 -0.701077,0 -1.068668,-0.5457 z m -0.03411,-1.59164 v 0.31075 q 0,0.4017 0.212218,0.6556 0.212218,0.25391 0.557072,0.25391 0.409277,0 0.632864,-0.31454 0.227376,-0.31833 0.227376,-0.89814 0,-1.02319 -0.795817,-1.02319 -0.367591,0 -0.602547,0.28043 -0.231166,0.27664 -0.231166,0.73518 z"
         style="font-weight:bold;font-size:7.76111126px;fill:#f5f5f5;fill-opacity:1;stroke:#000000;stroke-width:0.1;stroke-miterlimit:4;stroke-dasharray:none;stroke-opacity:1"
         id="path5118" />
      <path
         inkscape:connector-curvature="0"
         d="m 23.571983,293.7142 h -0.01516 v 2.23587 H 22.35931 v -5.66546 h 1.197515 v 0.58359 h 0.01516 q 0.443384,-0.67833 1.246781,-0.67833 0.754131,0 1.163408,0.51917 0.413067,0.51539 0.413067,1.40594 0,0.97014 -0.48128,1.55753 -0.47749,0.58739 -1.273307,0.58739 -0.701077,0 -1.068669,-0.5457 z m -0.03411,-1.59164 v 0.31075 q 0,0.4017 0.212218,0.6556 0.212218,0.25391 0.557072,0.25391 0.409277,0 0.632864,-0.31454 0.227376,-0.31833 0.227376,-0.89814 0,-1.02319 -0.795817,-1.02319 -0.367592,0 -0.602547,0.28043 -0.231166,0.27664 -0.231166,0.73518 z"
         style="font-weight:bold;font-size:7.76111126px;fill:#f5f5f5;fill-opacity:1;stroke:#000000;stroke-width:0.1;stroke-miterlimit:4;stroke-dasharray:none;stroke-opacity:1"
         id="path5120" />
      <path
         inkscape:connector-curvature="0"
         d="m 28.377203,294.16516 h -1.197515 v -5.74504 h 1.197515 z"
         style="font-weight:bold;font-size:7.76111126px;fill:#f5f5f5;fill-opacity:1;stroke:#000000;stroke-width:0.1;stroke-miterlimit:4;stroke-dasharray:none;stroke-opacity:1"
         id="path5122" />
      <path
         inkscape:connector-curvature="0"
         d="m 29.999154,289.67069 q -0.303168,0 -0.496438,-0.17811 -0.19327,-0.1819 -0.19327,-0.44339 0,-0.26906 0.19327,-0.43959 0.19327,-0.17053 0.496438,-0.17053 0.306958,0 0.496438,0.17053 0.19327,0.17053 0.19327,0.43959 0,0.27286 -0.19327,0.44718 -0.18948,0.17432 -0.496438,0.17432 z m 0.591178,4.49447 h -1.197515 v -3.88055 h 1.197515 z"
         style="font-weight:bold;font-size:7.76111126px;fill:#f5f5f5;fill-opacity:1;stroke:#000000;stroke-width:0.1;stroke-miterlimit:4;stroke-dasharray:none;stroke-opacity:1"
         id="path5124" />
      <path
         inkscape:connector-curvature="0"
         d="m 34.54668,294.02495 q -0.405488,0.23495 -1.170988,0.23495 -0.894347,0 -1.447629,-0.54191 -0.553283,-0.54192 -0.553283,-1.39837 0,-0.98908 0.591179,-1.55752 0.594968,-0.57223 1.587844,-0.57223 0.685919,0 0.992877,0.1819 v 1.01561 q -0.375171,-0.28043 -0.837503,-0.28043 -0.515386,0 -0.818555,0.30317 -0.299378,0.29938 -0.299378,0.82992 0,0.51539 0.28801,0.81098 0.288009,0.2918 0.792027,0.2918 0.447173,0 0.875399,-0.28043 z"
         style="font-weight:bold;font-size:7.76111126px;fill:#f5f5f5;fill-opacity:1;stroke:#000000;stroke-width:0.1;stroke-miterlimit:4;stroke-dasharray:none;stroke-opacity:1"
         id="path5126" />
      <path
         inkscape:connector-curvature="0"
         d="m 38.563661,294.16516 h -1.133092 v -0.55707 h -0.01516 q -0.390329,0.65181 -1.15583,0.65181 -0.564651,0 -0.890557,-0.31833 -0.322116,-0.32211 -0.322116,-0.85645 0,-1.1293 1.33773,-1.30362 l 1.053511,-0.14022 q 0,-0.63665 -0.689709,-0.63665 -0.693497,0 -1.318782,0.41307 v -0.90193 q 0.250114,-0.12885 0.682129,-0.22737 0.435804,-0.0985 0.792027,-0.0985 1.659847,0 1.659847,1.65605 z m -1.125512,-1.57647 v -0.26149 l -0.704867,0.091 q -0.583599,0.0758 -0.583599,0.52676 0,0.20464 0.140215,0.33727 0.144005,0.12885 0.38654,0.12885 0.337275,0 0.549493,-0.23117 0.212218,-0.23495 0.212218,-0.59117 z"
         style="font-weight:bold;font-size:7.76111126px;fill:#f5f5f5;fill-opacity:1;stroke:#000000;stroke-width:0.1;stroke-miterlimit:4;stroke-dasharray:none;stroke-opacity:1"
         id="path5128" />
      <path
         inkscape:connector-curvature="0"
         d="m 41.864407,294.11969 q -0.265273,0.14021 -0.799607,0.14021 -1.265728,0 -1.265728,-1.31499 v -1.77733 h -0.629075 v -0.88297 h 0.629075 v -0.83751 l 1.193726,-0.34106 v 1.17857 h 0.871609 v 0.88297 h -0.871609 v 1.5689 q 0,0.60634 0.481279,0.60634 0.189481,0 0.39033,-0.1099 z"
         style="font-weight:bold;font-size:7.76111126px;fill:#f5f5f5;fill-opacity:1;stroke:#000000;stroke-width:0.1;stroke-miterlimit:4;stroke-dasharray:none;stroke-opacity:1"
         id="path5130" />
      <path
         inkscape:connector-curvature="0"
         d="m 43.141503,289.67069 q -0.303168,0 -0.496438,-0.17811 -0.19327,-0.1819 -0.19327,-0.44339 0,-0.26906 0.19327,-0.43959 0.19327,-0.17053 0.496438,-0.17053 0.306958,0 0.496438,0.17053 0.19327,0.17053 0.19327,0.43959 0,0.27286 -0.19327,0.44718 -0.18948,0.17432 -0.496438,0.17432 z m 0.591179,4.49447 h -1.197516 v -3.88055 h 1.197516 z"
         style="font-weight:bold;font-size:7.76111126px;fill:#f5f5f5;fill-opacity:1;stroke:#000000;stroke-width:0.1;stroke-miterlimit:4;stroke-dasharray:none;stroke-opacity:1"
         id="path5132" />
      <path
         inkscape:connector-curvature="0"
         d="m 46.597625,294.2599 q -0.970139,0 -1.527211,-0.54191 -0.553283,-0.54571 -0.553283,-1.47795 0,-0.96256 0.57602,-1.50447 0.57602,-0.5457 1.557528,-0.5457 0.966349,0 1.515842,0.5457 0.549493,0.54191 0.549493,1.43626 0,0.96635 -0.568441,1.52721 -0.564651,0.56086 -1.549948,0.56086 z m 0.03032,-3.15295 q -0.424435,0 -0.659391,0.2918 -0.234955,0.2918 -0.234955,0.82613 0,1.11794 0.901926,1.11794 0.86024,0 0.86024,-1.14825 0,-1.08762 -0.86782,-1.08762 z"
         style="font-weight:bold;font-size:7.76111126px;fill:#f5f5f5;fill-opacity:1;stroke:#000000;stroke-width:0.1;stroke-miterlimit:4;stroke-dasharray:none;stroke-opacity:1"
         id="path5134" />
      <path
         inkscape:connector-curvature="0"
         d="m 53.2408,294.16516 h -1.193726 v -2.15628 q 0,-0.90193 -0.644233,-0.90193 -0.310747,0 -0.511596,0.23874 -0.200849,0.23875 -0.200849,0.60634 v 2.21313 H 49.49288 v -3.88055 h 1.197516 v 0.61391 h 0.01516 q 0.428225,-0.70865 1.24678,-0.70865 1.288466,0 1.288466,1.59921 z"
         style="font-weight:bold;font-size:7.76111126px;fill:#f5f5f5;fill-opacity:1;stroke:#000000;stroke-width:0.1;stroke-miterlimit:4;stroke-dasharray:none;stroke-opacity:1"
         id="path5136" />
    </g>
  </g>
</svg>
